HIERARCHY
ROOT Root
{
  OFFSET 0.0 0.0 0.0
  CHANNELS 6 Xposition Yposition Zposition Zrotation Yrotation Xrotation
  JOINT Hips
  {
    OFFSET 0.0 100.0 0.0
    CHANNELS 6 Xposition Yposition Zposition Zrotation Yrotation Xrotation
    JOINT Spine1
    {
      OFFSET 5.003913 -0.037094 -0.013727
      CHANNELS 3 Zrotation Yrotation Xrotation
      JOINT Spine2
      {
        OFFSET 7.125363 -1e-06 0.0
        CHANNELS 3 Zrotation Yrotation Xrotation
        JOINT Chest
        {
          OFFSET 7.594027 1e-06 0.0
          CHANNELS 3 Zrotation Yrotation Xrotation
          JOINT Neck1
          {
            OFFSET 26.313086 -0.460272 -0.181672
            CHANNELS 3 Zrotation Yrotation Xrotation
            JOINT Neck2
            {
              OFFSET 8.045911 0.0 0.0
              CHANNELS 3 Zrotation Yrotation Xrotation
              JOINT Head
              {
                OFFSET 6.432774 0.0 0.0
                CHANNELS 3 Zrotation Yrotation Xrotation
                JOINT HeadEnd
                {
                  OFFSET 16.169773 0.06451 0.00362
                  CHANNELS 3 Zrotation Yrotation Xrotation
                }
                JOINT Jaw
                {
                  OFFSET 0.108741 3.12938 0.002639
                  CHANNELS 3 Zrotation Yrotation Xrotation
                }
                JOINT LeftEye
                {
                  OFFSET 4.45173 8.166359 3.206392
                  CHANNELS 3 Zrotation Yrotation Xrotation
                }
                JOINT RightEye
                {
                  OFFSET 4.436895 8.135758 -3.222429
                  CHANNELS 3 Zrotation Yrotation Xrotation
                }
              }
            }
          }
          JOINT LeftShoulder
          {
            OFFSET 23.218927 5.195579 1.621656
            CHANNELS 3 Zrotation Yrotation Xrotation
            JOINT LeftArm
            {
              OFFSET 15.902118 2e-06 -2e-06
              CHANNELS 3 Zrotation Yrotation Xrotation
              JOINT LeftForeArm
              {
                OFFSET 28.739307 0.0 -1e-06
                CHANNELS 3 Zrotation Yrotation Xrotation
                JOINT LeftHand
                {
                  OFFSET 27.093981 -4e-06 0.0
                  CHANNELS 3 Zrotation Yrotation Xrotation
                  JOINT LeftHandThumb1
                  {
                    OFFSET 2.276781 3.380274 0.83384
                    CHANNELS 3 Zrotation Yrotation Xrotation
                    JOINT LeftHandThumb2
                    {
                      OFFSET 4.705309 -1e-06 -1e-06
                      CHANNELS 3 Zrotation Yrotation Xrotation
                      JOINT LeftHandThumb3
                      {
                        OFFSET 2.798515 0.0 3e-06
                        CHANNELS 3 Zrotation Yrotation Xrotation
                        JOINT LeftHandThumbEnd
                        {
                          OFFSET 3.180793 4e-06 -4e-06
                          CHANNELS 3 Zrotation Yrotation Xrotation
                        }
                      }
                    }
                  }
                  JOINT LeftHandIndex1
                  {
                    OFFSET 3.247786 2.352677 0.137192
                    CHANNELS 3 Zrotation Yrotation Xrotation
                    JOINT LeftHandIndex2
                    {
                      OFFSET 6.367095 1e-06 0.0
                      CHANNELS 3 Zrotation Yrotation Xrotation
                      JOINT LeftHandIndex3
                      {
                        OFFSET 3.662364 0.0 0.0
                        CHANNELS 3 Zrotation Yrotation Xrotation
                        JOINT LeftHandIndex4
                        {
                          OFFSET 2.329242 4e-06 -4e-06
                          CHANNELS 3 Zrotation Yrotation Xrotation
                          JOINT LeftHandIndexEnd
                          {
                            OFFSET 2.767823 1e-06 0.0
                            CHANNELS 3 Zrotation Yrotation Xrotation
                          }
                        }
                      }
                    }
                  }
                  JOINT LeftHandMiddle1
                  {
                    OFFSET 3.163612 0.945023 -0.406112
                    CHANNELS 3 Zrotation Yrotation Xrotation
                    JOINT LeftHandMiddle2
                    {
                      OFFSET 6.276789 3e-06 0.0
                      CHANNELS 3 Zrotation Yrotation Xrotation
                      JOINT LeftHandMiddle3
                      {
                        OFFSET 4.35652 -1e-06 4e-06
                        CHANNELS 3 Zrotation Yrotation Xrotation
                        JOINT LeftHandMiddle4
                        {
                          OFFSET 2.996877 0.0 8e-06
                          CHANNELS 3 Zrotation Yrotation Xrotation
                          JOINT LeftHandMiddleEnd
                          {
                            OFFSET 2.323256 3e-06 -4e-06
                            CHANNELS 3 Zrotation Yrotation Xrotation
                          }
                        }
                      }
                    }
                  }
                  JOINT LeftHandRing1
                  {
                    OFFSET 2.882606 -0.309162 0.107445
                    CHANNELS 3 Zrotation Yrotation Xrotation
                    JOINT LeftHandRing2
                    {
                      OFFSET 6.033198 0.0 4e-06
                      CHANNELS 3 Zrotation Yrotation Xrotation
                      JOINT LeftHandRing3
                      {
                        OFFSET 4.350578 3e-06 0.0
                        CHANNELS 3 Zrotation Yrotation Xrotation
                        JOINT LeftHandRing4
                        {
                          OFFSET 2.651321 2e-06 -7e-06
                          CHANNELS 3 Zrotation Yrotation Xrotation
                          JOINT LeftHandRingEnd
                          {
                            OFFSET 1.937663 1e-06 -4e-06
                            CHANNELS 3 Zrotation Yrotation Xrotation
                          }
                        }
                      }
                    }
                  }
                  JOINT LeftHandPinky1
                  {
                    OFFSET 2.865315 -1.525436 0.575687
                    CHANNELS 3 Zrotation Yrotation Xrotation
                    JOINT LeftHandPinky2
                    {
                      OFFSET 5.54936 1e-06 -8e-06
                      CHANNELS 3 Zrotation Yrotation Xrotation
                      JOINT LeftHandPinky3
                      {
                        OFFSET 3.070974 0.0 -4e-06
                        CHANNELS 3 Zrotation Yrotation Xrotation
                        JOINT LeftHandPinky4
                        {
                          OFFSET 1.549672 1e-06 0.0
                          CHANNELS 3 Zrotation Yrotation Xrotation
                          JOINT LeftHandPinkyEnd
                          {
                            OFFSET 1.952123 0.0 0.0
                            CHANNELS 3 Zrotation Yrotation Xrotation
                          }
                        }
                      }
                    }
                  }
                }
              }
            }
          }
          JOINT RightShoulder
          {
            OFFSET 23.161716 5.296122 -1.380114
            CHANNELS 3 Zrotation Yrotation Xrotation
            JOINT RightArm
            {
              OFFSET -16.027195 -2e-06 1.1e-05
              CHANNELS 3 Zrotation Yrotation Xrotation
              JOINT RightForeArm
              {
                OFFSET -28.736639 4e-06 2e-06
                CHANNELS 3 Zrotation Yrotation Xrotation
                JOINT RightHand
                {
                  OFFSET -27.133619 6e-06 0.0
                  CHANNELS 3 Zrotation Yrotation Xrotation
                  JOINT RightHandThumb1
                  {
                    OFFSET -2.274328 -3.351035 -0.83067
                    CHANNELS 3 Zrotation Yrotation Xrotation
                    JOINT RightHandThumb2
                    {
                      OFFSET -4.703594 -3e-06 2e-06
                      CHANNELS 3 Zrotation Yrotation Xrotation
                      JOINT RightHandThumb3
                      {
                        OFFSET -2.794935 -4e-06 -3e-06
                        CHANNELS 3 Zrotation Yrotation Xrotation
                        JOINT RightHandThumbEnd
                        {
                          OFFSET -3.183852 4e-06 1e-06
                          CHANNELS 3 Zrotation Yrotation Xrotation
                        }
                      }
                    }
                  }
                  JOINT RightHandIndex1
                  {
                    OFFSET -3.253496 -2.33755 -0.127667
                    CHANNELS 3 Zrotation Yrotation Xrotation
                    JOINT RightHandIndex2
                    {
                      OFFSET -6.344434 0.0 0.0
                      CHANNELS 3 Zrotation Yrotation Xrotation
                      JOINT RightHandIndex3
                      {
                        OFFSET -3.654871 0.0 -8e-06
                        CHANNELS 3 Zrotation Yrotation Xrotation
                        JOINT RightHandIndex4
                        {
                          OFFSET -2.327586 -1e-06 0.0
                          CHANNELS 3 Zrotation Yrotation Xrotation
                          JOINT RightHandIndexEnd
                          {
                            OFFSET -2.770001 3e-06 8e-06
                            CHANNELS 3 Zrotation Yrotation Xrotation
                          }
                        }
                      }
                    }
                  }
                  JOINT RightHandMiddle1
                  {
                    OFFSET -3.168223 -0.944764 0.411762
                    CHANNELS 3 Zrotation Yrotation Xrotation
                    JOINT RightHandMiddle2
                    {
                      OFFSET -6.266691 -1e-06 -4e-06
                      CHANNELS 3 Zrotation Yrotation Xrotation
                      JOINT RightHandMiddle3
                      {
                        OFFSET -4.348901 0.0 0.0
                        CHANNELS 3 Zrotation Yrotation Xrotation
                        JOINT RightHandMiddle4
                        {
                          OFFSET -3.00024 2e-06 -4e-06
                          CHANNELS 3 Zrotation Yrotation Xrotation
                          JOINT RightHandMiddleEnd
                          {
                            OFFSET -2.321477 -4e-06 -4e-06
                            CHANNELS 3 Zrotation Yrotation Xrotation
                          }
                        }
                      }
                    }
                  }
                  JOINT RightHandRing1
                  {
                    OFFSET -2.885654 0.293261 -0.119232
                    CHANNELS 3 Zrotation Yrotation Xrotation
                    JOINT RightHandRing2
                    {
                      OFFSET -6.032835 -1e-06 -4e-06
                      CHANNELS 3 Zrotation Yrotation Xrotation
                      JOINT RightHandRing3
                      {
                        OFFSET -4.33881 0.0 -4e-06
                        CHANNELS 3 Zrotation Yrotation Xrotation
                        JOINT RightHandRing4
                        {
                          OFFSET -2.654903 -4e-06 -4e-06
                          CHANNELS 3 Zrotation Yrotation Xrotation
                          JOINT RightHandRingEnd
                          {
                            OFFSET -1.935122 0.0 4e-06
                            CHANNELS 3 Zrotation Yrotation Xrotation
                          }
                        }
                      }
                    }
                  }
                  JOINT RightHandPinky1
                  {
                    OFFSET -2.866241 1.503904 -0.60527
                    CHANNELS 3 Zrotation Yrotation Xrotation
                    JOINT RightHandPinky2
                    {
                      OFFSET -5.553177 -2e-06 0.0
                      CHANNELS 3 Zrotation Yrotation Xrotation
                      JOINT RightHandPinky3
                      {
                        OFFSET -3.062664 -1e-06 -4e-06
                        CHANNELS 3 Zrotation Yrotation Xrotation
                        JOINT RightHandPinky4
                        {
                          OFFSET -1.546529 2e-06 4e-06
                          CHANNELS 3 Zrotation Yrotation Xrotation
                          JOINT RightHandPinkyEnd
                          {
                            OFFSET -1.952341 0.0 -4e-06
                            CHANNELS 3 Zrotation Yrotation Xrotation
                          }
                        }
                      }
                    }
                  }
                }
              }
            }
          }
        }
      }
    }
    JOINT LeftLeg
    {
      OFFSET -8.443107 2.567604 10.043214
      CHANNELS 3 Zrotation Yrotation Xrotation
      JOINT LeftShin
      {
        OFFSET 43.229198 1e-06 -1e-06
        CHANNELS 3 Zrotation Yrotation Xrotation
        JOINT LeftFoot
        {
          OFFSET 42.298611 1e-06 1e-06
          CHANNELS 3 Zrotation Yrotation Xrotation
          JOINT LeftToeBase
          {
            OFFSET 14.165858 1e-06 0.0
            CHANNELS 3 Zrotation Yrotation Xrotation
            JOINT LeftToeEnd
            {
              OFFSET 6.7141 -0.234461 0.0
              CHANNELS 3 Zrotation Yrotation Xrotation
            }
          }
        }
      }
    }
    JOINT RightLeg
    {
      OFFSET -8.303923 2.592729 -10.047278
      CHANNELS 3 Zrotation Yrotation Xrotation
      JOINT RightShin
      {
        OFFSET -43.369682 0.0 1e-06
        CHANNELS 3 Zrotation Yrotation Xrotation
        JOINT RightFoot
        {
          OFFSET -42.260784 4e-06 2e-06
          CHANNELS 3 Zrotation Yrotation Xrotation
          JOINT RightToeBase
          {
            OFFSET -14.222245 -2e-06 -1e-06
            CHANNELS 3 Zrotation Yrotation Xrotation
            JOINT RightToeEnd
            {
              OFFSET -6.660062 0.232574 -2e-06
              CHANNELS 3 Zrotation Yrotation Xrotation
            }
          }
        }
      }
    }
  }
}
MOTION
Frames: 4
Frame Time: 0.03333333333333333
0.0 0.0 0.0 0.0 -0.0 0.0 -0.906714 11.120635 104.059624 -123.480476 -84.822937 -58.090519 -4.520546 -0.118573 -0.033368 -12.175603 0.038734 -0.022395 11.111506 0.89749 -1.006575 -6.019408 -1.676511 2.221043 -2.246595 0.203758 -2.266172 -25.007584 2.025758 -2.244509 6e-06 -0.0 0.0 -0.21075 -0.070091 0.122201 -0.262435 0.13908 0.083972 -0.379951 -0.262462 0.174648 -15.916663 -73.763191 20.676735 8.156607 6.2682 -78.209976 119.178391 1.00574 -1.256696 -24.58222 9.890822 8.726268 17.636625 -26.322729 52.41119 -19.46666 -14.395594 29.410385 -1e-06 -8.77482 -2e-06 16.734568 -17.407728 5.665259 -0.609777 -1.795654 -3.889327 -4.807088 -11.046811 -2.93785 3e-06 -20.976019 -0.0 -5.019969 -25.03356 -4.031882 6e-06 1e-06 0.0 -10.634532 -5.68697 -3.565587 10.573271 -17.922949 -3.113901 1e-06 -13.821208 -0.0 -0.501777 -31.181505 -4.027016 -10.769086 -60.21701 7.454644 -13.982713 -7.150197 -2.875041 13.772727 -8.401492 -3.218241 0.347733 -34.211555 0.771652 -0.963028 -17.733368 2.621017 -1e-06 -0.0 -1e-06 -17.346418 -20.095217 -4.20178 21.757555 -1.638375 3.866427 1e-06 -6.338825 1e-06 -1.697589 -22.591747 -6.194007 1e-06 -3e-06 -1e-06 -176.68602 -75.736237 2.975646 5.21511 14.234771 -75.028481 110.441154 1.656109 3.138864 -15.344022 16.908804 -2.96859 22.182106 -20.375893 49.933315 -16.701807 -16.743521 28.476526 -3e-06 -12.690596 -0.0 15.628082 -17.061487 2.425598 -0.10592 -1.513855 -4.275882 -5.039041 -5.61287 -2.953556 5e-06 -11.02052 -3e-06 -6.111296 -15.895329 -3.840471 -1e-06 -0.0 0.0 -10.283365 -5.680288 -4.341838 11.028289 -11.302404 -2.372633 -1.384269 -14.238581 -6.320119 -0.625438 -26.924185 -3.827602 -4.25857 -49.910465 -3.605732 -13.708518 -7.363476 -3.72094 18.141142 -14.052738 -3.242673 3e-06 -18.787266 -3e-06 -0.429713 -8.456044 2.555502 1e-06 1e-06 -1e-06 -15.92353 -20.094482 -5.473584 30.419193 -7.190823 1.735925 2e-06 -8.162927 0.0 -1.861901 -22.861469 -6.167942 -1e-06 -2e-06 -0.0 169.28212 -25.705469 -77.489594 34.988785 -12.324913 27.666037 -68.917137 30.175066 -6.422149 -8.860743 1.574097 3.05209 -0.999999 -0.0 -0.0 -8.464047 -26.262592 -77.96772 25.112101 -12.760188 32.765991 -97.608482 39.149616 -28.354254 -17.272644 0.760787 1.642125 -1.000002 0.0 0.0 
0.0 0.0 0.0 0.0 -0.0 0.0 -0.93371 11.125845 104.116562 -123.303619 -84.799904 -58.294674 -4.5291 -0.107827 -0.041275 -12.186646 0.014503 -0.020161 11.137171 0.971259 -0.962013 -5.879413 -1.577293 2.254551 -2.248115 0.16165 -2.328787 -24.838343 2.046315 -2.219085 5e-06 -0.0 -0.0 -0.213679 -0.076135 0.124906 -0.259061 0.131991 0.088545 -0.380433 -0.266914 0.175706 -15.767379 -73.686684 20.685579 8.041425 6.20752 -78.421341 119.220779 0.974062 -1.195756 -24.685453 9.903655 8.804076 17.636631 -26.322733 52.411205 -19.466665 -14.395602 29.410395 -2e-06 -8.774823 -1e-06 16.710489 -17.425472 5.702479 -0.609777 -1.795653 -3.889328 -4.807088 -11.046809 -2.93785 3e-06 -20.976015 1e-06 -5.019972 -25.033558 -4.031882 6e-06 1e-06 1e-06 -10.634535 -5.686971 -3.565588 10.573277 -17.922947 -3.113901 0.0 -13.821211 1e-06 -0.501778 -31.181505 -4.027014 -10.825011 -60.255142 7.539685 -13.982718 -7.150198 -2.875042 13.772734 -8.401493 -3.218242 0.347731 -34.211555 0.771655 -0.963029 -17.73337 2.621021 -1e-06 -0.0 0.0 -17.346424 -20.095217 -4.201783 21.757566 -1.638377 3.866427 1e-06 -6.338824 2e-06 -1.697588 -22.591745 -6.194008 -0.0 -3e-06 -2e-06 -176.501297 -75.702072 2.866835 5.125512 14.540993 -75.137085 110.487091 1.657883 3.142067 -15.421512 16.992516 -3.169513 22.182112 -20.375898 49.933327 -16.701809 -16.74353 28.47653 -3e-06 -12.6906 1e-06 15.667235 -17.032944 2.436071 -0.105917 -1.513856 -4.275882 -5.039043 -5.612872 -2.953556 4e-06 -11.020525 -2e-06 -6.1113 -15.895332 -3.84047 -1e-06 -1e-06 -1e-06 -10.283371 -5.680289 -4.341839 11.028292 -11.302404 -2.372633 -1.38427 -14.238582 -6.320122 -0.625442 -26.924185 -3.827599 -4.284452 -49.970947 -3.578147 -13.708526 -7.363477 -3.720938 18.141151 -14.052739 -3.242674 4e-06 -18.78727 -2e-06 -0.429715 -8.456047 2.555504 1e-06 -0.0 1e-06 -15.923538 -20.094484 -5.473584 30.419214 -7.190824 1.735926 1e-06 -8.162928 0.0 -1.861905 -22.861473 -6.167943 -1e-06 -1e-06 -3e-06 169.278183 -25.62401 -77.557434 34.751247 -12.270023 27.761969 -68.625832 29.556158 -6.391808 -9.007571 1.585738 3.047049 -0.999997 1e-06 0.0 -8.47718 -26.149973 -77.909767 24.92347 -12.61548 32.732677 -97.047447 38.910244 -28.059023 -17.14094 0.75904 1.633909 -1.000003 -0.0 -1e-06 
0.0 0.0 0.0 0.0 -0.0 0.0 -0.978849 11.10999 104.163727 -123.234207 -84.766777 -58.377258 -4.544727 -0.087343 -0.037396 -12.204503 -5.6e-05 -0.020905 11.1805 0.99234 -0.916591 -5.678264 -1.517654 2.277676 -2.245599 0.137135 -2.373541 -24.67922 2.084013 -2.238365 5e-06 0.0 0.0 -0.216749 -0.087446 0.130646 -0.25351 0.120855 0.096254 -0.377227 -0.277436 0.179163 -15.768631 -73.608566 20.797665 8.001839 6.186442 -78.565529 119.253151 0.968478 -1.116827 -24.784277 9.929964 8.913802 17.636627 -26.322733 52.411205 -19.466658 -14.395598 29.410389 -0.0 -8.774822 -3e-06 16.690243 -17.432487 5.722538 -0.609778 -1.795653 -3.889328 -4.80709 -11.046809 -2.937851 2e-06 -20.976015 1e-06 -5.019971 -25.033552 -4.031882 6e-06 0.0 -0.0 -10.634537 -5.686971 -3.565588 10.573276 -17.922947 -3.113899 0.0 -13.821208 1e-06 -0.501777 -31.181505 -4.027014 -10.873973 -60.26062 7.604969 -13.982716 -7.150198 -2.875043 13.772731 -8.40149 -3.218242 0.347735 -34.211552 0.771654 -0.963028 -17.73337 2.62102 -1e-06 0.0 -1e-06 -17.346416 -20.095217 -4.201784 21.757557 -1.638374 3.866429 1e-06 -6.338824 1e-06 -1.69759 -22.591743 -6.194007 1e-06 -2e-06 -1e-06 -176.50975 -75.668411 2.980818 5.02248 14.800382 -75.228249 110.559189 1.700261 3.13136 -15.472769 17.037357 -3.306527 22.182112 -20.375885 49.933308 -16.701813 -16.743525 28.476522 -4e-06 -12.690598 -1e-06 15.741841 -17.020771 2.442845 -0.105918 -1.513856 -4.27588 -5.039041 -5.612872 -2.953557 5e-06 -11.020523 -2e-06 -6.111298 -15.895334 -3.840469 -0.0 -2e-06 -0.0 -10.283369 -5.680288 -4.341838 11.028292 -11.302404 -2.372633 -1.384269 -14.23858 -6.32012 -0.625437 -26.924187 -3.827602 -4.30467 -50.051514 -3.549542 -13.708522 -7.363476 -3.720939 18.141148 -14.052741 -3.242674 7e-06 -18.78727 -5e-06 -0.429709 -8.456043 2.555504 1e-06 -0.0 -0.0 -15.923532 -20.094482 -5.473585 30.419207 -7.190826 1.735928 1e-06 -8.162926 -1e-06 -1.861903 -22.861467 -6.167945 1e-06 -2e-06 -1e-06 169.285431 -25.552946 -77.621796 34.534115 -12.188231 27.854624 -68.268631 28.924522 -6.365712 -9.138051 1.586944 3.044719 -0.999999 -0.0 -1e-06 -8.500682 -26.080761 -77.883163 24.811916 -12.498319 32.69418 -96.444946 38.614262 -27.722656 -16.932804 0.74949 1.630175 -1.000002 -0.0 -1e-06 
0.0 0.0 0.0 0.0 -0.0 0.0 -1.027044 11.066484 104.195763 -123.224861 -84.725563 -58.391792 -4.562773 -0.068437 -0.028433 -12.224603 0.002182 -0.019958 11.240921 0.963485 -0.867367 -5.429596 -1.457747 2.285924 -2.238577 0.133888 -2.38395 -24.530497 2.094727 -2.263289 6e-06 0.0 0.0 -0.218695 -0.092918 0.131281 -0.250797 0.116712 0.097314 -0.374655 -0.283232 0.178711 -15.849756 -73.548607 20.926876 7.99752 6.203231 -78.715767 119.294456 0.951228 -1.073727 -24.893204 9.980331 8.9732 17.636627 -26.322733 52.411201 -19.466665 -14.395598 29.410395 -1e-06 -8.774822 -1e-06 16.662544 -17.437366 5.718761 -0.609775 -1.795654 -3.889328 -4.807087 -11.04681 -2.937851 5e-06 -20.976019 -0.0 -5.01997 -25.03356 -4.031883 7e-06 -2e-06 0.0 -10.634531 -5.686971 -3.565588 10.573275 -17.922951 -3.113903 1e-06 -13.82121 -1e-06 -0.501776 -31.181505 -4.027014 -10.908297 -60.228088 7.632914 -13.982712 -7.150198 -2.875042 13.77273 -8.401493 -3.218242 0.347734 -34.211555 0.771653 -0.963028 -17.73337 2.621019 -0.0 0.0 -0.0 -17.346416 -20.095217 -4.201783 21.757559 -1.638374 3.866427 1e-06 -6.338825 1e-06 -1.697588 -22.591742 -6.194008 0.0 -2e-06 -1e-06 -176.68811 -75.650169 3.290043 4.891217 14.991379 -75.356705 110.688347 1.753472 3.093751 -15.493216 17.136065 -3.460352 22.182106 -20.375891 49.933308 -16.701813 -16.743528 28.476524 -3e-06 -12.690598 -0.0 15.79561 -17.011749 2.438489 -0.105919 -1.513856 -4.275882 -5.039041 -5.612871 -2.953556 3e-06 -11.020523 -1e-06 -6.111298 -15.89533 -3.840469 0.0 -1e-06 -1e-06 -10.283368 -5.680287 -4.341839 11.028289 -11.302404 -2.372633 -1.384267 -14.238581 -6.320121 -0.62544 -26.924187 -3.8276 -4.309101 -50.116459 -3.529232 -13.708522 -7.363476 -3.720939 18.141146 -14.052738 -3.242673 5e-06 -18.78727 -4e-06 -0.429713 -8.456046 2.555503 1e-06 2e-06 -0.0 -15.923532 -20.094482 -5.473583 30.419201 -7.190824 1.735925 -0.0 -8.162925 -0.0 -1.861902 -22.861469 -6.167943 1e-06 -2e-06 0.0 169.28981 -25.496338 -77.694366 34.363346 -12.125005 27.934689 -67.86174 28.356733 -6.344741 -9.168089 1.58302 3.049771 -0.999999 0.0 -0.0 -8.548727 -26.066269 -77.876282 24.792696 -12.409363 32.64006 -95.694229 38.21912 -27.289577 -16.622511 0.736696 1.630302 -1.000002 -0.0 -1e-06 
